<?xml version="1.0" encoding="utf-8"?>
<!-- Generator: Adobe Illustrator 26.0.2, SVG Export Plug-In . SVG Version: 6.00 Build 0)  -->
<svg version="1.1" id="Calque_1" focusable="false" xmlns="http://www.w3.org/2000/svg" xmlns:xlink="http://www.w3.org/1999/xlink"
	 x="0px" y="0px" viewBox="0 0 384 512" style="enable-background:new 0 0 384 512;" xml:space="preserve">
<style type="text/css">
	.st0{fill:#0065FC;}
</style>
<path class="st0" d="M154.5,160.1c0-20.7,16.8-37.5,37.5-37.5s37.5,16.8,37.5,37.5s-16.8,37.5-37.5,37.5S154.5,180.9,154.5,160.1z
	 M287.1,160.9c-6.5-6.5-17-6.5-23.6,0L218.4,206h-52.8l-45.1-45.1c-6.5-6.5-17-6.5-23.6,0c-6.5,6.5-6.5,17,0,23.6l49.3,49.3v139
	c0,9.2,7.4,16.6,16.6,16.6h8.4c9.2,0,16.6-7.4,16.6-16.6v-58.3h8.3v58.3c0,9.2,7.4,16.6,16.6,16.6h8.3c9.2,0,16.6-7.4,16.6-16.6
	v-139l49.3-49.3C293.6,177.9,293.6,167.3,287.1,160.9z"/>
</svg>
