<?xml version="1.0" encoding="utf-8"?>
<!-- Generator: Adobe Illustrator 26.0.2, SVG Export Plug-In . SVG Version: 6.00 Build 0)  -->
<svg version="1.1" id="Calque_1" focusable="false" xmlns="http://www.w3.org/2000/svg" xmlns:xlink="http://www.w3.org/1999/xlink"
	 x="0px" y="0px" viewBox="0 0 576 512" style="enable-background:new 0 0 576 512;" xml:space="preserve">
<style type="text/css">
	.st0{fill:#0065FC;}
</style>
<path class="st0" d="M293.9,243.9l87.9,31.4v128c0,5.2-4.2,9.4-9.4,9.4h-37.5c-5.2,0-9.4-4.2-9.4-9.4v-65.6h-93.8v65.6
	c0,5.2-4.2,9.4-9.4,9.4h-37.5c-5.2,0-9.4-4.2-9.4-9.4V277.9c-21.8-7.8-37.5-28.4-37.5-52.8c0-10.4,8.4-18.8,18.8-18.8
	s18.8,8.4,18.8,18.8c0,10.3,8.4,18.7,18.8,18.8H293.9z M438,178.2V197c0,20.7-16.8,37.5-37.5,37.5h-18.8v20.8l-75-26.8v-87.8
	c0-8.3,10.1-12.5,16-6.6l16,16h31.4c6.4,0,13.9,4.6,16.8,10.4l4.2,8.4h37.5C433.8,168.9,438,173.1,438,178.2z M372.4,178.2
	c0-5.2-4.2-9.4-9.4-9.4s-9.4,4.2-9.4,9.4c0,5.2,4.2,9.4,9.4,9.4S372.4,183.4,372.4,178.2z"/>
</svg>
